<svg width="70" height="28" viewBox="0 0 70 28" fill="none" xmlns="http://www.w3.org/2000/svg">
<rect width="70" height="28" rx="14" fill="url(#paint0_linear_2003_2014)"/>
<path d="M20.192 19.384H19.152V21H17.152V19.384H12.496V17.416L16.4 9.608H18.672L14.768 17.416H17.152V15.288H19.152V17.416H20.192V19.384ZM23.9995 21H21.6155V18.632H23.9995V21ZM32.834 17.16C32.834 18.44 32.658 19.336 31.826 20.168C31.314 20.68 30.498 21.096 29.314 21.096C28.13 21.096 27.266 20.68 26.77 20.184C26.066 19.48 25.906 18.648 25.842 17.816H27.922C28.034 18.712 28.45 19.224 29.314 19.224C29.714 19.224 30.05 19.112 30.306 18.856C30.674 18.488 30.754 17.88 30.754 17.16C30.754 15.848 30.37 15.112 29.362 15.112C28.514 15.112 28.13 15.592 27.986 16.04H26.082V9.608H32.578V11.48H27.97V13.928C28.274 13.64 28.914 13.352 29.682 13.352C30.626 13.352 31.346 13.656 31.81 14.12C32.706 15.016 32.834 16.088 32.834 17.16Z" fill="white"/>
<path d="M42.8555 22.3333L44.2096 16.4792L39.668 12.5417L45.668 12.0208L48.0013 6.5L50.3346 12.0208L56.3346 12.5417L51.793 16.4792L53.1471 22.3333L48.0013 19.2292L42.8555 22.3333Z" fill="#EFDA3B"/>
<defs>
<linearGradient id="paint0_linear_2003_2014" x1="35" y1="0" x2="35" y2="28" gradientUnits="userSpaceOnUse">
<stop stop-color="#0B0B0B"/>
<stop offset="1" stop-color="#0B0B0B" stop-opacity="0.79"/>
</linearGradient>
</defs>
</svg>
